{
  "asset": {
    "generator": "Khronos glTF Blender I/O v1.7.7",
    "version": "2.0"
  },
  "extensionsUsed": ["KHR_materials_transmission", "KHR_materials_volume"],
  "scene": 0,
  "scenes": [
    {
      "name": "Scene",
      "nodes": [0, 1, 2, 3]
    }
  ],
  "nodes": [
    {
      "mesh": 0,
      "name": "Cube",
      "translation": [0, 1, 0]
    },
    {
      "mesh": 1,
      "name": "Cube.001",
      "translation": [0, 1, -5]
    },
    {
      "mesh": 2,
      "name": "Cube.002",
      "translation": [0, 1, 5]
    },
    {
      "mesh": 3,
      "name": "\u5e73\u9762",
      "scale": [71.8841552734375, 1, 74.64244079589844],
      "translation": [0, 0, 0]
    }
  ],
  "materials": [
    {
      "doubleSided": true,
      "name": "\u6750\u8d28",
      "pbrMetallicRoughness": {
        "baseColorFactor": [
          0.800000011920929, 0.800000011920929, 0.800000011920929, 1
        ],
        "metallicFactor": 0,
        "roughnessFactor": 0.5
      }
    },
    {
      "doubleSided": true,
      "name": "\u6750\u8d28.001",
      "pbrMetallicRoughness": {
        "baseColorFactor": [
          0.800000011920929, 0.800000011920929, 0.800000011920929, 1
        ],
        "roughnessFactor": 0
      }
    },
    {
      "extensions": {
        "KHR_materials_transmission": {
          "transmissionFactor": 1
        },
        "KHR_materials_volume": {
          "attenuationColor": [0.2, 0.8, 0.1],
          "attenuationDistance": 0.5,
          "thicknessFactor": 0.5
        }
      },
      "doubleSided": true,
      "name": "\u6750\u8d28.002",
      "pbrMetallicRoughness": {
        "baseColorFactor": [0.2, 0.8, 0.1, 1],
        "metallicFactor": 0,
        "roughnessFactor": 0
      }
    },
    {
      "doubleSided": true,
      "name": "\u6750\u8d28.003",
      "pbrMetallicRoughness": {
        "baseColorFactor": [
          0.022036006674170494, 0.19459550082683563, 0.8000000715255737, 1
        ],
        "metallicFactor": 0,
        "roughnessFactor": 0.8999999761581421
      }
    }
  ],
  "meshes": [
    {
      "name": "Cube",
      "primitives": [
        {
          "attributes": {
            "POSITION": 0,
            "NORMAL": 1,
            "TEXCOORD_0": 2
          },
          "indices": 3,
          "material": 0
        }
      ]
    },
    {
      "name": "Cube.001",
      "primitives": [
        {
          "attributes": {
            "POSITION": 4,
            "NORMAL": 5,
            "TEXCOORD_0": 6
          },
          "indices": 3,
          "material": 1
        }
      ]
    },
    {
      "name": "Cube.002",
      "primitives": [
        {
          "attributes": {
            "POSITION": 7,
            "NORMAL": 8,
            "TEXCOORD_0": 9
          },
          "indices": 3,
          "material": 2
        }
      ]
    },
    {
      "name": "\u5e73\u9762",
      "primitives": [
        {
          "attributes": {
            "POSITION": 10,
            "NORMAL": 11,
            "TEXCOORD_0": 12
          },
          "indices": 13,
          "material": 3
        }
      ]
    }
  ],
  "accessors": [
    {
      "bufferView": 0,
      "componentType": 5126,
      "count": 24,
      "max": [1, 1, 1],
      "min": [-1, -1, -1],
      "type": "VEC3"
    },
    {
      "bufferView": 1,
      "componentType": 5126,
      "count": 24,
      "type": "VEC3"
    },
    {
      "bufferView": 2,
      "componentType": 5126,
      "count": 24,
      "type": "VEC2"
    },
    {
      "bufferView": 3,
      "componentType": 5123,
      "count": 36,
      "type": "SCALAR"
    },
    {
      "bufferView": 4,
      "componentType": 5126,
      "count": 24,
      "max": [1, 1, 1],
      "min": [-1, -1, -1],
      "type": "VEC3"
    },
    {
      "bufferView": 5,
      "componentType": 5126,
      "count": 24,
      "type": "VEC3"
    },
    {
      "bufferView": 6,
      "componentType": 5126,
      "count": 24,
      "type": "VEC2"
    },
    {
      "bufferView": 7,
      "componentType": 5126,
      "count": 24,
      "max": [1, 1, 1],
      "min": [-1, -1, -1],
      "type": "VEC3"
    },
    {
      "bufferView": 8,
      "componentType": 5126,
      "count": 24,
      "type": "VEC3"
    },
    {
      "bufferView": 9,
      "componentType": 5126,
      "count": 24,
      "type": "VEC2"
    },
    {
      "bufferView": 10,
      "componentType": 5126,
      "count": 4,
      "max": [1, 0, 1],
      "min": [-1, 0, -1],
      "type": "VEC3"
    },
    {
      "bufferView": 11,
      "componentType": 5126,
      "count": 4,
      "type": "VEC3"
    },
    {
      "bufferView": 12,
      "componentType": 5126,
      "count": 4,
      "type": "VEC2"
    },
    {
      "bufferView": 13,
      "componentType": 5123,
      "count": 6,
      "type": "SCALAR"
    }
  ],
  "bufferViews": [
    {
      "buffer": 0,
      "byteLength": 288,
      "byteOffset": 0
    },
    {
      "buffer": 0,
      "byteLength": 288,
      "byteOffset": 288
    },
    {
      "buffer": 0,
      "byteLength": 192,
      "byteOffset": 576
    },
    {
      "buffer": 0,
      "byteLength": 72,
      "byteOffset": 768
    },
    {
      "buffer": 0,
      "byteLength": 288,
      "byteOffset": 840
    },
    {
      "buffer": 0,
      "byteLength": 288,
      "byteOffset": 1128
    },
    {
      "buffer": 0,
      "byteLength": 192,
      "byteOffset": 1416
    },
    {
      "buffer": 0,
      "byteLength": 288,
      "byteOffset": 1608
    },
    {
      "buffer": 0,
      "byteLength": 288,
      "byteOffset": 1896
    },
    {
      "buffer": 0,
      "byteLength": 192,
      "byteOffset": 2184
    },
    {
      "buffer": 0,
      "byteLength": 48,
      "byteOffset": 2376
    },
    {
      "buffer": 0,
      "byteLength": 48,
      "byteOffset": 2424
    },
    {
      "buffer": 0,
      "byteLength": 32,
      "byteOffset": 2472
    },
    {
      "buffer": 0,
      "byteLength": 12,
      "byteOffset": 2504
    }
  ],
  "buffers": [
    {
      "byteLength": 2516,
      "uri": "data:application/octet-stream;base64,"
    }
  ]
}
